<svg width="75" height="44" viewBox="0 0 75 44" fill="none" xmlns="http://www.w3.org/2000/svg">
<path d="M24.8985 26.1846C24.8985 25.4065 25.0921 24.6417 25.4533 23.9559C25.706 23.4844 25.5288 22.9008 25.0593 22.647C24.5899 22.3931 24.0088 22.5711 23.756 23.0426C23.2439 24.0053 22.9648 25.0933 22.9648 26.1913C22.9648 28.0739 23.7626 29.8707 25.1578 31.1302C25.3417 31.2983 25.5682 31.3742 25.8045 31.3742C26.0639 31.3742 26.3331 31.2654 26.5202 31.0543C26.8747 30.6587 26.8485 30.0422 26.4545 29.6861C25.4697 28.7926 24.8985 27.5166 24.8985 26.1846Z" fill="black"/>
<path d="M28.8118 32.8131L28.7527 32.856C28.3161 33.1593 28.1979 33.7593 28.4999 34.1978C28.6837 34.4748 28.9858 34.6198 29.2976 34.6198C29.4815 34.6198 29.6752 34.5704 29.836 34.4517L29.8951 34.4088C30.3317 34.1055 30.4499 33.5055 30.1479 33.067C29.8459 32.6285 29.2484 32.5098 28.8118 32.8131Z" fill="black"/>
<path d="M71.2959 19.875C69.8581 19.875 68.6401 20.8213 68.2035 22.1203H59.4052V22.0016C59.4052 20.8708 59.1032 19.7894 58.5812 18.8365H64.4903C65.0189 18.8365 65.4554 18.4046 65.4554 17.8672C65.4554 17.3265 65.0254 16.898 64.4903 16.898H56.9922C56.6574 16.6111 56.2963 16.3507 55.899 16.1397C56.3619 15.4572 56.6639 14.6956 56.8412 13.9043H62.1036C62.3137 13.9043 62.514 13.8384 62.6748 13.7098L65.5736 11.5404C66.1021 11.913 66.7423 12.124 67.4317 12.124C69.2372 12.124 70.7079 10.6469 70.7079 8.83359C70.7079 7.02027 69.2372 5.54322 67.4317 5.54322C65.6261 5.54322 64.1554 7.02027 64.1554 8.83359C64.1554 9.24571 64.2408 9.64465 64.3819 10.0139L61.7753 11.9624H56.9922C56.9068 10.7623 56.5129 9.65779 55.8826 8.7215H60.17C60.6986 8.7215 61.1352 8.2896 61.1352 7.75222C61.1352 7.21151 60.7051 6.78293 60.17 6.78293H54.0016C54.0016 6.78293 53.9359 6.79942 53.8998 6.79942C52.8822 6.1565 51.6905 5.78726 50.3937 5.78726H50.1934C49.3859 3.00128 46.7989 1 43.8477 1C41.4611 1 39.36 2.2825 38.1913 4.19145C37.0324 2.27592 34.9314 1 32.5349 1C29.5836 1 27.0066 3.00128 26.1891 5.78726H25.9889C24.0651 5.78726 22.3317 6.62139 21.1236 7.94679H16.6261C16.0976 7.94679 15.661 8.3787 15.661 8.91608C15.661 9.45678 16.091 9.88536 16.6261 9.88536H19.8794C19.5511 10.67 19.3673 11.5305 19.3673 12.4339C19.3673 12.7966 19.4001 13.1593 19.4592 13.5153H14.5776L11.0222 10.3403C11.2586 9.88531 11.3998 9.37759 11.3998 8.83691C11.3998 7.02359 9.92906 5.54654 8.12352 5.54654C6.31798 5.54654 4.84726 7.02359 4.84726 8.83691C4.84726 10.6502 6.31798 12.1273 8.12352 12.1273C8.68817 12.1273 9.20025 11.9756 9.65987 11.7217L13.5599 15.2067C13.7372 15.3682 13.9637 15.4506 14.2 15.4506H20.0928C20.2109 15.688 20.3357 15.9155 20.4867 16.1331C19.3508 16.7398 18.4447 17.6695 17.8308 18.774H7.41141C7.02403 17.3992 5.77328 16.3771 4.27626 16.3771C2.47072 16.3771 1 17.8542 1 19.6675C1 21.4808 2.47072 22.9579 4.27626 22.9579C5.71412 22.9579 6.93212 22.0116 7.36872 20.7126H17.1351C17.0498 21.1247 16.9907 21.5566 16.9907 21.9951C16.9907 22.6874 17.1089 23.3633 17.3091 23.9964H11.0651C10.5366 23.9964 10.1 24.4283 10.1 24.9656C10.1 25.5063 10.53 25.9349 11.0651 25.9349H18.3006C18.8816 26.7196 19.6203 27.3856 20.4935 27.8504C20.267 28.1867 20.0832 28.5494 19.9223 28.9318H13.4584C13.2483 28.9318 13.048 28.9978 12.8872 29.1263L9.98841 31.2958C9.45986 30.9232 8.81973 30.7122 8.13034 30.7122C6.3248 30.7122 4.85408 32.1892 4.85408 34.0026C4.85408 35.8159 6.3248 37.2929 8.13034 37.2929C9.93588 37.2929 11.4066 35.8159 11.4066 34.0026C11.4066 33.5904 11.3212 33.1915 11.1801 32.8223L13.7867 30.8737H19.4266C19.4004 31.1012 19.3774 31.3287 19.3774 31.5661C19.3774 32.4695 19.5612 33.3299 19.8895 34.1146H15.392C14.8634 34.1146 14.4268 34.5465 14.4268 35.0839C14.4268 35.6246 14.8569 36.0532 15.392 36.0532H21.1304C22.3417 37.3786 24.0718 38.2127 25.9956 38.2127H26.1958C27.0034 40.9987 29.5903 43 32.5416 43C34.9282 43 37.0293 41.7175 38.198 39.8086C39.3569 41.7241 41.4579 43 43.8544 43C46.8057 43 49.3827 40.9987 50.2002 38.2127H50.4004C52.8363 38.2127 54.9734 36.8709 56.1159 34.896H58.9227C59.4512 34.896 59.8878 34.4641 59.8878 33.9267C59.8878 33.386 59.4578 32.9574 58.9227 32.9574H56.8644C56.9563 32.509 57.0154 32.0474 57.0154 31.5661C57.0154 30.788 56.8644 30.0297 56.6116 29.3208H60.9745L64.5299 32.4958C64.2935 32.9508 64.1523 33.4585 64.1523 33.9992C64.1523 35.8125 65.623 37.2895 67.4286 37.2895C69.2341 37.2895 70.7048 35.8125 70.7048 33.9992C70.7048 32.1859 69.2341 30.7088 67.4286 30.7088C66.8639 30.7088 66.3518 30.8605 65.8922 31.1143L61.9922 27.6294C61.8149 27.4679 61.5884 27.3855 61.3521 27.3855H56.6543C57.7902 26.5678 58.6306 25.394 59.0672 24.0588H68.1512C68.5386 25.4336 69.7894 26.4557 71.2864 26.4557C73.0919 26.4557 74.5626 24.9786 74.5626 23.1653C74.5626 21.352 73.0919 19.8749 71.2864 19.8749L71.2959 19.875ZM67.4452 7.49143C68.1838 7.49143 68.7912 8.09807 68.7912 8.84323C68.7912 9.58505 68.1871 10.195 67.4452 10.195C66.7065 10.195 66.0992 9.58838 66.0992 8.84323C66.0992 8.1014 66.7032 7.49143 67.4452 7.49143ZM8.16342 10.2015C7.42477 10.2015 6.81742 9.59488 6.81742 8.84973C6.81742 8.1079 7.42146 7.49793 8.16342 7.49793C8.90207 7.49793 9.50942 8.10458 9.50942 8.84973C9.50942 9.59155 8.90538 10.2015 8.16342 10.2015ZM4.31266 21.0321C3.57401 21.0321 2.96665 20.4255 2.96665 19.6803C2.96665 18.9385 3.5707 18.3285 4.31266 18.3285C5.0513 18.3285 5.65866 18.9352 5.65866 19.6803C5.65866 20.4221 5.05461 21.0321 4.31266 21.0321ZM8.16342 35.3545C7.42477 35.3545 6.81742 34.7478 6.81742 34.0027C6.81742 33.2608 7.42146 32.6509 8.16342 32.6509C8.90207 32.6509 9.50942 33.2575 9.50942 34.0027C9.50942 34.7445 8.90538 35.3545 8.16342 35.3545ZM67.4452 32.6444C68.1838 32.6444 68.7912 33.251 68.7912 33.9962C68.7912 34.738 68.1871 35.348 67.4452 35.348C66.7065 35.348 66.0992 34.7413 66.0992 33.9962C66.0992 33.2543 66.7032 32.6444 67.4452 32.6444ZM54.0675 26.535C53.7327 26.6274 53.4799 26.8977 53.3945 27.234C53.3092 27.5703 53.4109 27.9264 53.6637 28.1704C54.5961 29.0737 55.118 30.2804 55.118 31.5728C55.118 34.1708 53.017 36.2809 50.4302 36.2809C50.1872 36.2809 49.9246 36.2545 49.6324 36.2051C49.3796 36.1622 49.1104 36.2215 48.9003 36.3732C48.6902 36.5249 48.5458 36.7623 48.513 37.0161C48.1847 39.3207 46.192 41.0516 43.8809 41.0516C41.294 41.0516 39.193 38.9415 39.193 36.3435V36.2941C39.193 36.0336 39.2685 33.729 41.2021 33.729C41.7306 33.729 42.1672 33.2971 42.1672 32.7597C42.1672 32.219 41.7371 31.7904 41.2021 31.7904C38.0834 31.7904 37.2594 34.7281 37.2594 36.2875V36.3468C37.2594 38.9448 35.1583 41.0549 32.5715 41.0549C30.2603 41.0549 28.2676 39.3174 27.9328 37.0194C27.9 36.759 27.7555 36.5315 27.5454 36.3765C27.3353 36.2249 27.076 36.1556 26.8134 36.2084C26.5278 36.2578 26.2684 36.2842 26.0156 36.2842C23.4288 36.2842 21.3277 34.1741 21.3277 31.5761C21.3277 30.2837 21.8399 29.077 22.7821 28.1737C23.0348 27.9363 23.1366 27.5736 23.0512 27.2373C22.9659 26.901 22.7065 26.6372 22.3783 26.5383C20.3626 25.9713 18.9575 24.1085 18.9575 22.005C18.9575 19.9048 20.3692 18.0387 22.3783 17.4716C22.7131 17.3793 22.9659 17.1089 23.0512 16.7726C23.1366 16.4363 23.0348 16.0803 22.7821 15.8363C21.8497 14.9329 21.3277 13.7262 21.3277 12.4338C21.3277 9.83581 23.4288 7.72573 26.0156 7.72573C26.2586 7.72573 26.5212 7.75211 26.8134 7.80156C26.8987 7.81805 26.9808 7.80156 27.0661 7.80156C26.554 8.24006 26.0911 8.73793 25.7301 9.31162C25.4444 9.76001 25.579 10.3568 26.0255 10.6436C26.1864 10.7458 26.3604 10.7952 26.5376 10.7952C26.8561 10.7952 27.1679 10.6337 27.3518 10.3469C27.7884 9.66438 28.3925 9.09727 29.118 8.71813C29.5973 8.46426 30.1094 8.29611 30.638 8.22029C31.1665 8.14446 31.5276 7.6532 31.4521 7.12237C31.3766 6.59154 30.8875 6.22888 30.3589 6.30472C29.6104 6.41352 28.8882 6.6509 28.2152 7.00367C28.0806 7.06961 27.9624 7.16523 27.8377 7.24106C27.8705 7.15534 27.9132 7.0795 27.9296 6.98719C28.2579 4.68257 30.2505 2.95171 32.5682 2.95171C35.1551 2.95171 37.2561 5.06179 37.2561 7.6598V23.1655C37.2561 23.6963 37.6862 24.1348 38.2212 24.1348C38.7596 24.1348 39.1864 23.7029 39.1864 23.1655V12.2792C39.7149 12.6089 40.3715 12.8199 41.1955 12.8199C41.724 12.8199 42.1606 12.388 42.1606 11.8506C42.1606 11.3099 41.7305 10.8813 41.1955 10.8813C39.2618 10.8813 39.1864 8.57668 39.1864 8.32288V7.66349C39.1864 5.06548 41.2874 2.9554 43.8743 2.9554C46.1854 2.9554 48.1781 4.69292 48.5064 6.99088C48.5392 7.25134 48.6836 7.47883 48.8937 7.63379C49.1038 7.78546 49.3632 7.85469 49.6258 7.80194C49.9114 7.75249 50.1708 7.72611 50.4236 7.72611C53.0104 7.72611 55.1114 9.83619 55.1114 12.4342C55.1114 13.4991 54.7569 14.5014 54.1102 15.329C53.6046 14.2146 52.7905 13.2618 51.7137 12.6189C51.2606 12.3485 50.6632 12.4936 50.394 12.9552C50.1248 13.4101 50.2692 14.0102 50.7288 14.2805C51.9796 15.0323 52.7281 16.3576 52.7281 17.8182C52.7281 18.7216 52.4425 19.5722 51.9041 20.291C51.5856 20.7229 51.6677 21.3197 52.0978 21.6494C52.275 21.7845 52.4753 21.8439 52.6788 21.8439C52.9743 21.8439 53.2599 21.7087 53.4536 21.4548C54.2448 20.3998 54.665 19.1436 54.665 17.8182C54.665 17.7754 54.665 17.7325 54.6551 17.693C56.3523 18.4282 57.4948 20.1162 57.4948 22.0054C57.4948 24.1056 56.0831 25.9717 54.0741 26.5388L54.0675 26.535ZM71.2959 24.5173C70.5573 24.5173 69.9499 23.9106 69.9499 23.1655C69.9499 22.4237 70.554 21.8137 71.2959 21.8137C72.0346 21.8137 72.6419 22.4203 72.6419 23.1655C72.6419 23.9073 72.0379 24.5173 71.2959 24.5173Z" fill="black" stroke="black" stroke-width="0.5"/>
<path d="M38.2268 26.4492C37.6983 26.4492 37.2617 26.8811 37.2617 27.4185V29.3506C37.2617 29.8814 37.6918 30.3199 38.2268 30.3199C38.7652 30.3199 39.192 29.888 39.192 29.3506V27.4185C39.192 26.8877 38.7619 26.4492 38.2268 26.4492Z" fill="black"/>
</svg>
