<svg width="358" height="198" viewBox="0 0 358 198" fill="none" xmlns="http://www.w3.org/2000/svg">
<path d="M8.87735 134.626H3.51606V131.243H17.9657V134.626H12.6045V152H8.87735V134.626ZM32.7606 131.243H45.6047V134.626H36.4877V139.815H44.974V143.198H36.4877V148.617H45.6047V152H32.7606V131.243ZM78.3002 148.703C76.322 151.025 73.455 152.344 70.1006 152.344C64.2232 152.344 59.9227 147.699 59.9227 141.593C59.9227 135.486 64.2232 130.842 70.1006 130.842C73.0822 130.842 75.6052 131.845 77.5261 133.709L75.0031 136.547C73.7703 135.314 72.1075 134.397 70.1006 134.397C66.2014 134.397 63.7072 138.152 63.7072 141.593C63.7072 145.033 66.2014 148.789 70.1006 148.789C72.3942 148.789 74.2577 147.642 75.4905 146.094L78.3002 148.703ZM92.7369 131.243H96.464V139.815H106.126V131.243H109.853V152H106.126V143.198H96.464V152H92.7369V131.243ZM142.821 152.344L130.121 138.84L130.092 152H126.365V130.899H127.512L140.212 144.374L140.241 131.243H143.968V152.344H142.821ZM180.681 141.593C180.681 147.499 176.036 152.344 169.987 152.344C163.938 152.344 159.293 147.499 159.293 141.593C159.293 135.687 163.938 130.842 169.987 130.842C176.036 130.842 180.681 135.687 180.681 141.593ZM163.02 141.593C163.02 145.377 165.916 148.846 169.987 148.846C174.03 148.846 176.954 145.377 176.954 141.593C176.954 137.808 174.03 134.339 169.987 134.339C165.916 134.339 163.02 137.808 163.02 141.593ZM196.028 131.243H199.755V148.617H207.754V152H196.028V131.243ZM241.581 141.593C241.581 147.499 236.937 152.344 230.887 152.344C224.838 152.344 220.193 147.499 220.193 141.593C220.193 135.687 224.838 130.842 230.887 130.842C236.937 130.842 241.581 135.687 241.581 141.593ZM223.92 141.593C223.92 145.377 226.816 148.846 230.887 148.846C234.93 148.846 237.854 145.377 237.854 141.593C237.854 137.808 234.93 134.339 230.887 134.339C226.816 134.339 223.92 137.808 223.92 141.593ZM277.17 140.303V140.933C277.17 141.478 277.141 141.965 277.112 142.424C276.711 147.986 272.21 152.344 266.447 152.344C260.398 152.344 255.753 147.499 255.753 141.593C255.753 135.687 260.398 130.842 266.447 130.842C269.601 130.842 272.353 132.132 274.303 134.225L271.579 136.776C270.318 135.343 268.511 134.339 266.447 134.339C262.433 134.339 259.48 137.866 259.48 141.593C259.48 145.32 262.433 148.846 266.447 148.846C269.601 148.846 272.095 146.639 273.041 143.886L269.916 140.303H277.17ZM292.292 131.243H296.019V152H292.292V131.243ZM312.537 131.243H325.381V134.626H316.264V139.815H324.751V143.198H316.264V148.617H325.381V152H312.537V131.243ZM349.554 136.002C348.837 134.97 347.69 134.339 346.457 134.339C345.282 134.339 344.422 135.257 344.422 136.289C344.422 137.12 344.995 137.923 346.257 138.353L348.006 138.984C350.93 140.045 353.826 141.994 353.826 145.75C353.826 149.764 350.643 152.344 346.4 152.344C342.501 152.344 340.207 149.993 339.405 148.13L342.358 145.979C343.132 147.728 344.623 148.846 346.715 148.846C348.722 148.846 350.099 147.585 350.099 145.721C350.099 143.944 348.608 142.969 347.031 142.424L345.196 141.765C342.386 140.761 340.752 138.955 340.723 136.231C340.695 133.479 343.218 130.899 346.457 130.899C349.468 130.899 351.303 132.361 352.335 133.823L349.554 136.002Z" fill="white"/>
<path d="M15.8985 180.815C16.6543 179.605 18.065 178.724 20.5591 178.724C23.8593 178.724 25.4716 181.041 25.4716 184.367V192H22.2722V184.719C22.2722 182.654 21.4156 181.57 19.501 181.57C17.8887 181.57 16.6291 182.654 16.6291 184.719V192H13.4296V184.719C13.4296 182.654 12.6739 181.57 10.7593 181.57C9.04617 181.57 7.78655 182.654 7.78655 184.719V192H4.58712V179.026H7.78655V180.361C8.39117 179.505 9.55002 178.724 11.7166 178.724C13.8075 178.724 15.2435 179.605 15.8985 180.815ZM51.0468 190.766C50.0895 191.723 48.7291 192.302 47.0916 192.302C43.741 192.302 40.8691 189.783 40.8691 185.526C40.8691 181.268 43.741 178.724 47.0916 178.724C48.7291 178.724 50.0895 179.328 51.0468 180.286V179.026H54.1707V192H51.0468V190.766ZM47.6458 181.57C45.6052 181.57 44.0433 183.006 44.0433 185.526C44.0433 188.02 45.6052 189.456 47.6458 189.456C49.5101 189.456 51.1224 188.02 51.1224 185.526C51.1224 183.006 49.5101 181.57 47.6458 181.57ZM76.9051 185.274L82.2135 192H78.5145L73.4222 185.635V192H70.3717V173.505H73.4222V185.322L77.5296 179.63H81.2047L76.9051 185.274ZM101.109 192.288C97.05 192.288 94.4559 189.478 94.4559 185.851C94.4559 182.008 97.074 179.341 100.677 179.341C104.568 179.341 106.418 181.912 106.418 185.226C106.418 185.635 106.394 186.163 106.298 186.668H97.5785C97.8427 188.469 99.2118 189.67 101.205 189.67C102.863 189.67 104.064 188.877 104.784 188.133L106.298 190.343C105.457 191.183 103.752 192.288 101.109 192.288ZM100.677 181.96C99.1878 181.96 97.9628 182.68 97.6505 184.218H103.295C103.247 182.68 102.118 181.96 100.677 181.96ZM124.948 192.288C122.473 192.288 120.912 191.159 120.192 189.91L122.185 187.917C122.666 188.925 123.602 189.622 124.948 189.622C125.836 189.622 126.605 189.118 126.605 188.253C126.605 187.46 125.98 187.028 125.044 186.716L123.939 186.355C122.233 185.803 121.008 184.626 121.008 182.8C121.008 180.927 122.738 179.341 124.851 179.341C126.893 179.341 128.31 180.278 128.959 181.359L126.965 183.089C126.461 182.344 125.836 181.936 124.972 181.936C124.275 181.936 123.867 182.344 123.867 182.8C123.867 183.353 124.299 183.689 124.996 183.929L126.052 184.29C127.734 184.866 129.559 185.971 129.559 188.253C129.559 190.535 127.638 192.288 124.948 192.288ZM162.228 173.505H165.278V192H162.228V173.505ZM182.307 176.963C181.274 176.963 180.433 176.123 180.433 175.114C180.433 174.081 181.274 173.24 182.307 173.24C183.315 173.24 184.18 174.081 184.156 175.114C184.132 176.123 183.315 176.963 182.307 176.963ZM180.793 179.63H183.844V192H180.793V179.63ZM204.235 175.786C203.539 175.786 203.106 176.363 203.106 177.468V179.63H206.301V182.08H203.106V192H200.056V182.08H198.542V179.63H200.056V177.468C200.056 174.994 201.593 173.216 204.235 173.216C206.877 173.216 208.246 174.97 208.246 177.132H205.34C205.34 176.363 205.004 175.786 204.235 175.786ZM226.273 192.288C222.214 192.288 219.62 189.478 219.62 185.851C219.62 182.008 222.238 179.341 225.841 179.341C229.732 179.341 231.582 181.912 231.582 185.226C231.582 185.635 231.558 186.163 231.462 186.668H222.742C223.007 188.469 224.376 189.67 226.369 189.67C228.027 189.67 229.228 188.877 229.948 188.133L231.462 190.343C230.621 191.183 228.916 192.288 226.273 192.288ZM225.841 181.96C224.352 181.96 223.127 182.68 222.814 184.218H228.459C228.411 182.68 227.282 181.96 225.841 181.96ZM270.231 192.288C266.171 192.288 263.577 189.478 263.577 185.851C263.577 182.008 266.195 179.341 269.798 179.341C273.69 179.341 275.539 181.912 275.539 185.226C275.539 185.635 275.515 186.163 275.419 186.668H266.7C266.964 188.469 268.333 189.67 270.327 189.67C271.984 189.67 273.185 188.877 273.906 188.133L275.419 190.343C274.578 191.183 272.873 192.288 270.231 192.288ZM269.798 181.96C268.309 181.96 267.084 182.68 266.772 184.218H272.417C272.369 182.68 271.24 181.96 269.798 181.96ZM299.377 190.823C298.465 191.736 297.168 192.288 295.606 192.288C292.412 192.288 289.673 189.886 289.673 185.827C289.673 181.767 292.412 179.341 295.606 179.341C297.168 179.341 298.465 179.918 299.377 180.831V179.63H302.356V192H299.377V190.823ZM296.135 182.056C294.189 182.056 292.7 183.425 292.7 185.827C292.7 188.205 294.189 189.574 296.135 189.574C297.912 189.574 299.449 188.205 299.449 185.827C299.449 183.425 297.912 182.056 296.135 182.056ZM321.548 192.288C319.074 192.288 317.513 191.159 316.792 189.91L318.786 187.917C319.267 188.925 320.203 189.622 321.548 189.622C322.437 189.622 323.206 189.118 323.206 188.253C323.206 187.46 322.581 187.028 321.645 186.716L320.54 186.355C318.834 185.803 317.609 184.626 317.609 182.8C317.609 180.927 319.339 179.341 321.452 179.341C323.494 179.341 324.911 180.278 325.56 181.359L323.566 183.089C323.062 182.344 322.437 181.936 321.572 181.936C320.876 181.936 320.468 182.344 320.468 182.8C320.468 183.353 320.9 183.689 321.596 183.929L322.653 184.29C324.335 184.866 326.16 185.971 326.16 188.253C326.16 190.535 324.239 192.288 321.548 192.288ZM348.899 179.63H352.142L345.825 197.284H342.774L344.576 192.096L339.243 179.63H342.51L345.945 188.181L348.899 179.63Z" fill="white"/>
<path d="M35.7106 17.6574C38.2433 17.6574 40.624 18.1639 42.8527 19.177C45.0815 20.0887 47.0063 21.4057 48.6272 23.1279C50.3494 24.7488 51.6664 26.7243 52.5782 29.0544C53.5912 31.2831 54.0978 33.6638 54.0978 36.1965C54.0978 38.7291 53.5912 41.1098 52.5782 43.3386C51.6664 45.5673 50.3494 47.5428 48.6272 49.265C47.0063 50.8859 45.0815 52.2029 42.8527 53.216C40.624 54.1278 38.2433 54.5836 35.7106 54.5836H10.7892V42.7308V17.6574H35.7106ZM48.6272 36.1965C48.6272 32.6507 47.3609 29.6115 44.8282 27.0789C42.2955 24.5462 39.2563 23.2799 35.7106 23.2799H16.2597V42.7308V49.1131H35.7106C39.2563 49.1131 42.2955 47.8467 44.8282 45.3141C47.3609 42.7814 48.6272 39.7422 48.6272 36.1965ZM53.7938 54.7356C55.9213 55.9513 57.8461 57.5722 59.5683 59.5983C61.3918 61.6244 62.9114 63.8532 64.1271 66.2846C65.4441 68.7159 66.4572 71.2486 67.1663 73.8826C67.8755 76.5165 68.1794 79.0492 68.0781 81.4806C68.0781 85.9381 67.217 90.1423 65.4948 94.0932C63.8739 98.0442 61.5945 101.489 58.6566 104.427C55.7187 107.364 52.2742 109.694 48.3233 111.417C44.3723 113.139 40.1681 114 35.7106 114H3.34312V10.2113H16.2597H35.7106C37.2302 10.11 38.8511 10.262 40.5733 10.6672C42.2955 11.0724 43.9671 11.6296 45.588 12.3388C47.3102 13.0479 48.9311 13.909 50.4507 14.9221C51.9703 15.8338 53.2367 16.8976 54.2497 18.1132C56.7824 20.6459 58.6566 23.5331 59.8722 26.775C61.0879 29.9155 61.6451 33.1573 61.5438 36.5004C61.5438 39.8435 60.8853 43.0853 59.5683 46.2258C58.2513 49.3663 56.3265 52.2029 53.7938 54.7356ZM62.6075 81.4806C62.6075 78.3401 62.101 75.3515 61.0879 72.5149C60.0749 69.6783 58.6566 67.1457 56.833 64.9169C55.0095 62.5869 52.8314 60.6114 50.2988 58.9905C47.8674 57.3696 45.2334 56.2045 42.3968 55.4954C46.3478 54.0771 49.5896 51.6457 52.1223 48.2013C54.7563 44.7569 56.0732 40.7553 56.0732 36.1965C56.0732 33.3599 55.5161 30.7259 54.4017 28.2946C53.3886 25.7619 51.9703 23.5838 50.1468 21.7603C48.3233 19.9368 46.1452 18.5185 43.6125 17.5054C41.1812 16.391 38.5472 15.8338 35.7106 15.8338H8.81368V42.7308V54.5836V56.5591V100.931V108.377H35.7106C39.459 108.377 42.954 107.668 46.1958 106.25C49.4377 104.832 52.2742 102.907 54.7056 100.476C57.137 98.0442 59.0618 95.2076 60.4801 91.9658C61.8984 88.724 62.6075 85.2289 62.6075 81.4806ZM35.7106 56.5591C39.155 56.5591 42.3462 57.2176 45.2841 58.5346C48.3233 59.8516 50.9573 61.6751 53.186 64.0052C55.5161 66.2339 57.3396 68.8679 58.6566 71.9071C59.9736 74.845 60.632 78.0361 60.632 81.4806C60.632 84.925 59.9736 88.1668 58.6566 91.206C57.3396 94.2452 55.5161 96.9298 53.186 99.2599C50.9573 101.489 48.3233 103.261 45.2841 104.578C42.3462 105.895 39.155 106.554 35.7106 106.554H10.7892V100.931V56.5591H35.7106ZM55.1615 81.4806C55.1615 78.8466 54.655 76.3646 53.6419 74.0345C52.6288 71.7045 51.2105 69.6783 49.387 67.9561C47.6648 66.1326 45.588 64.7143 43.1566 63.7012C40.8266 62.6882 38.3446 62.1816 35.7106 62.1816H16.2597V100.931H35.7106C38.3446 100.931 40.8266 100.425 43.1566 99.4118C45.588 98.3988 47.6648 97.0311 49.387 95.3089C51.2105 93.4854 52.6288 91.4086 53.6419 89.0786C54.655 86.7485 55.1615 84.2158 55.1615 81.4806Z" fill="white"/>
<path d="M131.48 42.7308V81.6325C131.48 85.0769 130.822 88.3188 129.505 91.358C128.188 94.2959 126.364 96.9298 124.034 99.2599C121.805 101.489 119.171 103.261 116.132 104.578C113.194 105.895 110.003 106.554 106.559 106.554C103.114 106.554 99.8724 105.895 96.8332 104.578C93.794 103.261 91.1094 101.489 88.7793 99.2599C86.5506 96.9298 84.7777 94.2959 83.4607 91.358C82.1437 88.3188 81.4852 85.0769 81.4852 81.6325V42.7308C81.4852 39.2863 82.1437 36.0445 83.4607 33.0053C84.7777 29.9661 86.5506 27.3321 88.7793 25.1034C91.1094 22.8746 93.794 21.1018 96.8332 19.7848C99.8724 18.4678 103.114 17.8093 106.559 17.8093C110.003 17.8093 113.194 18.4678 116.132 19.7848C119.171 21.1018 121.805 22.8746 124.034 25.1034C126.364 27.3321 128.188 29.9661 129.505 33.0053C130.822 36.0445 131.48 39.2863 131.48 42.7308ZM126.01 81.6325V42.7308C126.01 39.9955 125.503 37.4628 124.49 35.1327C123.477 32.8027 122.059 30.7766 120.235 29.0544C118.513 27.2308 116.436 25.8125 114.005 24.7995C111.675 23.7864 109.193 23.2799 106.559 23.2799C103.823 23.2799 101.291 23.7864 98.9606 24.7995C96.6306 25.8125 94.5538 27.2308 92.7303 29.0544C91.0081 30.7766 89.6404 32.8027 88.6274 35.1327C87.6143 37.4628 87.1078 39.9955 87.1078 42.7308V81.6325C87.1078 84.2665 87.6143 86.7992 88.6274 89.2305C89.6404 91.5606 91.0081 93.5867 92.7303 95.3089C94.5538 97.0311 96.6306 98.3988 98.9606 99.4118C101.291 100.425 103.823 100.931 106.559 100.931C109.193 100.931 111.675 100.425 114.005 99.4118C116.436 98.3988 118.513 97.0311 120.235 95.3089C122.059 93.5867 123.477 91.5606 124.49 89.2305C125.503 86.7992 126.01 84.2665 126.01 81.6325ZM138.926 42.7308V81.6325C138.926 86.09 138.065 90.2942 136.343 94.2452C134.621 98.0949 132.291 101.489 129.353 104.427C126.415 107.364 122.97 109.694 119.019 111.417C115.17 113.139 111.016 114 106.559 114C102.101 114 97.8969 113.139 93.946 111.417C89.995 109.694 86.5506 107.364 83.6127 104.427C80.6748 101.489 78.3447 98.0949 76.6225 94.2452C74.9003 90.2942 74.0392 86.09 74.0392 81.6325V42.7308C74.0392 38.2733 74.9003 34.069 76.6225 30.1181C78.3447 26.1671 80.6748 22.7227 83.6127 19.7848C86.5506 16.8469 89.995 14.5675 93.946 12.9466C97.8969 11.2244 102.101 10.3633 106.559 10.3633C111.016 10.3633 115.17 11.2244 119.019 12.9466C122.97 14.5675 126.415 16.8469 129.353 19.7848C132.291 22.7227 134.621 26.1671 136.343 30.1181C138.065 34.069 138.926 38.2733 138.926 42.7308ZM133.456 81.6325V42.7308C133.456 38.9824 132.746 35.4873 131.328 32.2455C129.91 29.0037 127.985 26.1671 125.554 23.7357C123.122 21.3044 120.235 19.3796 116.892 17.9613C113.65 16.543 110.206 15.8338 106.559 15.8338C102.81 15.8338 99.3152 16.543 96.0734 17.9613C92.8316 19.3796 89.995 21.3044 87.5636 23.7357C85.1323 26.1671 83.2075 29.0037 81.7892 32.2455C80.3709 35.4873 79.6617 38.9824 79.6617 42.7308V81.6325C79.6617 85.2796 80.3709 88.7746 81.7892 92.1178C83.2075 95.3596 85.1323 98.1962 87.5636 100.628C89.995 103.059 92.8316 104.984 96.0734 106.402C99.3152 107.82 102.81 108.529 106.559 108.529C110.206 108.529 113.65 107.82 116.892 106.402C120.235 104.984 123.122 103.059 125.554 100.628C127.985 98.1962 129.91 95.3596 131.328 92.1178C132.746 88.7746 133.456 85.2796 133.456 81.6325Z" fill="white"/>
<path d="M346.48 42.7308V81.6325C346.48 85.0769 345.822 88.3188 344.505 91.358C343.188 94.2959 341.364 96.9298 339.034 99.2599C336.805 101.489 334.171 103.261 331.132 104.578C328.194 105.895 325.003 106.554 321.559 106.554C318.114 106.554 314.872 105.895 311.833 104.578C308.794 103.261 306.109 101.489 303.779 99.2599C301.551 96.9298 299.778 94.2959 298.461 91.358C297.144 88.3188 296.485 85.0769 296.485 81.6325V42.7308C296.485 39.2863 297.144 36.0445 298.461 33.0053C299.778 29.9661 301.551 27.3321 303.779 25.1034C306.109 22.8746 308.794 21.1018 311.833 19.7848C314.872 18.4678 318.114 17.8093 321.559 17.8093C325.003 17.8093 328.194 18.4678 331.132 19.7848C334.171 21.1018 336.805 22.8746 339.034 25.1034C341.364 27.3321 343.188 29.9661 344.505 33.0053C345.822 36.0445 346.48 39.2863 346.48 42.7308ZM341.01 81.6325V42.7308C341.01 39.9955 340.503 37.4628 339.49 35.1327C338.477 32.8027 337.059 30.7766 335.235 29.0544C333.513 27.2308 331.436 25.8125 329.005 24.7995C326.675 23.7864 324.193 23.2799 321.559 23.2799C318.823 23.2799 316.291 23.7864 313.961 24.7995C311.631 25.8125 309.554 27.2308 307.73 29.0544C306.008 30.7766 304.64 32.8027 303.627 35.1327C302.614 37.4628 302.108 39.9955 302.108 42.7308V81.6325C302.108 84.2665 302.614 86.7992 303.627 89.2305C304.64 91.5606 306.008 93.5867 307.73 95.3089C309.554 97.0311 311.631 98.3988 313.961 99.4118C316.291 100.425 318.823 100.931 321.559 100.931C324.193 100.931 326.675 100.425 329.005 99.4118C331.436 98.3988 333.513 97.0311 335.235 95.3089C337.059 93.5867 338.477 91.5606 339.49 89.2305C340.503 86.7992 341.01 84.2665 341.01 81.6325ZM353.926 42.7308V81.6325C353.926 86.09 353.065 90.2942 351.343 94.2452C349.621 98.0949 347.291 101.489 344.353 104.427C341.415 107.364 337.97 109.694 334.019 111.417C330.17 113.139 326.016 114 321.559 114C317.101 114 312.897 113.139 308.946 111.417C304.995 109.694 301.551 107.364 298.613 104.427C295.675 101.489 293.345 98.0949 291.623 94.2452C289.9 90.2942 289.039 86.09 289.039 81.6325V42.7308C289.039 38.2733 289.9 34.069 291.623 30.1181C293.345 26.1671 295.675 22.7227 298.613 19.7848C301.551 16.8469 304.995 14.5675 308.946 12.9466C312.897 11.2244 317.101 10.3633 321.559 10.3633C326.016 10.3633 330.17 11.2244 334.019 12.9466C337.97 14.5675 341.415 16.8469 344.353 19.7848C347.291 22.7227 349.621 26.1671 351.343 30.1181C353.065 34.069 353.926 38.2733 353.926 42.7308ZM348.456 81.6325V42.7308C348.456 38.9824 347.746 35.4873 346.328 32.2455C344.91 29.0037 342.985 26.1671 340.554 23.7357C338.122 21.3044 335.235 19.3796 331.892 17.9613C328.65 16.543 325.206 15.8338 321.559 15.8338C317.81 15.8338 314.315 16.543 311.073 17.9613C307.832 19.3796 304.995 21.3044 302.564 23.7357C300.132 26.1671 298.207 29.0037 296.789 32.2455C295.371 35.4873 294.662 38.9824 294.662 42.7308V81.6325C294.662 85.2796 295.371 88.7746 296.789 92.1178C298.207 95.3596 300.132 98.1962 302.564 100.628C304.995 103.059 307.832 104.984 311.073 106.402C314.315 107.82 317.81 108.529 321.559 108.529C325.206 108.529 328.65 107.82 331.892 106.402C335.235 104.984 338.122 103.059 340.554 100.628C342.985 98.1962 344.91 95.3596 346.328 92.1178C347.746 88.7746 348.456 85.2796 348.456 81.6325Z" fill="white"/>
<path d="M180.711 18.7111C184.155 18.7111 187.397 19.3696 190.436 20.6866C193.475 22.0035 196.109 23.7764 198.338 26.0052C200.567 28.2339 202.34 30.8679 203.657 33.9071C204.974 36.9463 205.632 40.1881 205.632 43.6325C205.632 47.0769 204.974 50.3188 203.657 53.358C202.34 56.3972 200.567 59.0311 198.338 61.2599C196.109 63.4886 193.475 65.2615 190.436 66.5785C187.397 67.8955 184.155 68.554 180.711 68.554H155.789V43.6325C155.789 40.1881 156.448 36.9463 157.765 33.9071C159.082 30.8679 160.854 28.2339 163.083 26.0052C165.413 23.7764 168.047 22.0035 170.985 20.6866C174.024 19.3696 177.266 18.7111 180.711 18.7111ZM200.161 43.6325C200.161 40.8972 199.655 38.3646 198.642 36.0345C197.629 33.7045 196.211 31.6783 194.387 29.9561C192.665 28.1326 190.639 26.7143 188.309 25.7012C185.979 24.6882 183.446 24.1816 180.711 24.1816C178.077 24.1816 175.544 24.6882 173.113 25.7012C170.783 26.7143 168.706 28.1326 166.882 29.9561C165.16 31.6783 163.792 33.7045 162.779 36.0345C161.766 38.3646 161.26 40.8972 161.26 43.6325V63.0834H180.711C183.446 63.0834 185.979 62.5769 188.309 61.5638C190.639 60.5507 192.665 59.1831 194.387 57.4609C196.211 55.6374 197.629 53.5606 198.642 51.2305C199.655 48.9005 200.161 46.3678 200.161 43.6325ZM180.711 11.265C185.168 11.265 189.372 12.1261 193.323 13.8484C197.274 15.4693 200.719 17.7487 203.657 20.6866C206.594 23.6244 208.874 27.0689 210.495 31.0198C212.217 34.9708 213.078 39.175 213.078 43.6325C213.078 48.09 212.217 52.2942 210.495 56.2452C208.874 60.1962 206.594 63.6406 203.657 66.5785C200.719 69.5164 197.274 71.8464 193.323 73.5686C189.372 75.1895 185.168 76 180.711 76H161.26V114.902H155.789V109.431V70.5294H180.711C184.459 70.5294 187.954 69.8203 191.196 68.402C194.438 66.9837 197.274 65.0589 199.706 62.6275C202.137 60.1962 204.062 57.3596 205.48 54.1178C206.898 50.8759 207.608 47.3809 207.608 43.6325C207.608 39.8842 206.898 36.3891 205.48 33.1473C204.062 29.9055 202.137 27.0689 199.706 24.6375C197.274 22.2062 194.438 20.2813 191.196 18.863C187.954 17.4447 184.459 16.7356 180.711 16.7356C176.962 16.7356 173.467 17.4447 170.225 18.863C166.984 20.2813 164.147 22.2062 161.716 24.6375C159.284 27.0689 157.359 29.9055 155.941 33.1473C154.523 36.3891 153.814 39.8842 153.814 43.6325V109.431V114.902H148.343V43.6325C148.343 39.175 149.154 34.9708 150.774 31.0198C152.497 27.0689 154.827 23.6244 157.765 20.6866C160.703 17.7487 164.147 15.4693 168.098 13.8484C172.049 12.1261 176.253 11.265 180.711 11.265Z" fill="white"/>
<path d="M250.711 18.7111C254.155 18.7111 257.397 19.3696 260.436 20.6866C263.475 22.0035 266.109 23.7764 268.338 26.0052C270.567 28.2339 272.34 30.8679 273.657 33.9071C274.974 36.9463 275.632 40.1881 275.632 43.6325C275.632 47.0769 274.974 50.3188 273.657 53.358C272.34 56.3972 270.567 59.0311 268.338 61.2599C266.109 63.4886 263.475 65.2615 260.436 66.5785C257.397 67.8955 254.155 68.554 250.711 68.554H225.789V43.6325C225.789 40.1881 226.448 36.9463 227.765 33.9071C229.082 30.8679 230.854 28.2339 233.083 26.0052C235.413 23.7764 238.047 22.0035 240.985 20.6866C244.024 19.3696 247.266 18.7111 250.711 18.7111ZM270.161 43.6325C270.161 40.8972 269.655 38.3646 268.642 36.0345C267.629 33.7045 266.211 31.6783 264.387 29.9561C262.665 28.1326 260.639 26.7143 258.309 25.7012C255.979 24.6882 253.446 24.1816 250.711 24.1816C248.077 24.1816 245.544 24.6882 243.113 25.7012C240.783 26.7143 238.706 28.1326 236.882 29.9561C235.16 31.6783 233.792 33.7045 232.779 36.0345C231.766 38.3646 231.26 40.8972 231.26 43.6325V63.0834H250.711C253.446 63.0834 255.979 62.5769 258.309 61.5638C260.639 60.5507 262.665 59.1831 264.387 57.4609C266.211 55.6374 267.629 53.5606 268.642 51.2305C269.655 48.9005 270.161 46.3678 270.161 43.6325ZM250.711 11.265C255.168 11.265 259.372 12.1261 263.323 13.8484C267.274 15.4693 270.719 17.7487 273.657 20.6866C276.594 23.6244 278.874 27.0689 280.495 31.0198C282.217 34.9708 283.078 39.175 283.078 43.6325C283.078 48.09 282.217 52.2942 280.495 56.2452C278.874 60.1962 276.594 63.6406 273.657 66.5785C270.719 69.5164 267.274 71.8464 263.323 73.5686C259.372 75.1895 255.168 76 250.711 76H231.26V114.902H225.789V109.431V70.5294H250.711C254.459 70.5294 257.954 69.8203 261.196 68.402C264.438 66.9837 267.274 65.0589 269.706 62.6275C272.137 60.1962 274.062 57.3596 275.48 54.1178C276.898 50.8759 277.608 47.3809 277.608 43.6325C277.608 39.8842 276.898 36.3891 275.48 33.1473C274.062 29.9055 272.137 27.0689 269.706 24.6375C267.274 22.2062 264.438 20.2813 261.196 18.863C257.954 17.4447 254.459 16.7356 250.711 16.7356C246.962 16.7356 243.467 17.4447 240.225 18.863C236.984 20.2813 234.147 22.2062 231.716 24.6375C229.284 27.0689 227.359 29.9055 225.941 33.1473C224.523 36.3891 223.814 39.8842 223.814 43.6325V109.431V114.902H218.343V43.6325C218.343 39.175 219.154 34.9708 220.774 31.0198C222.497 27.0689 224.827 23.6244 227.765 20.6866C230.703 17.7487 234.147 15.4693 238.098 13.8484C242.049 12.1261 246.253 11.265 250.711 11.265Z" fill="white"/>
</svg>
